# xmcd
#
# Track frame offsets: 
#        150
#        19022
#        40975
#        61637
#        84857
#        104752
#        126987
#        142040
#
# Disc length: 2259 seconds
#
# Revision: 1
# Processed by: cddbd v1.5.2PL0 Copyright (c) Steve Scherf et al.
# Submitted via: ExactAudioCopy v0.99pb5
#
DISCID=6708d108
DTITLE=Louie Ramirez - Ray de la Paz - Sabor con Clase!
DYEAR=2003
DGENRE=Salsa
TTITLE0=Que Porque te Quiero
TTITLE1=En un Beso la Vida
TTITLE2=La Bikina
TTITLE3=Y Que
TTITLE4=Vale la Pena
TTITLE5=Presumida
TTITLE6=Simplemente una Ilusion
TTITLE7=Aguzate
EXTD=YEAR: 2003
EXTT0=
EXTT1=
EXTT2=
EXTT3=
EXTT4=
EXTT5=
EXTT6=
EXTT7=
PLAYORDER=
